Coordinates
version=1
nRows=24
nColumns=38
inDegrees=no

Units are S.I. units (second, meters, Newtons, ...)
If the header above contains a line with 'inDegrees', this indicates whether rotational values are in degrees (yes) or radians (no).

endheader
time	pelvis_tilt	pelvis_list	pelvis_rotation	pelvis_tx	pelvis_ty	pelvis_tz	hip_flexion_r	hip_adduction_r	hip_rotation_r	knee_angle_r	ankle_angle_r	subtalar_angle_r	mtp_angle_r	hip_flexion_l	hip_adduction_l	hip_rotation_l	knee_angle_l	ankle_angle_l	subtalar_angle_l	mtp_angle_l	lumbar_extension	lumbar_bending	lumbar_rotation	arm_flex_r	arm_add_r	arm_rot_r	elbow_flex_r	pro_sup_r	wrist_flex_r	wrist_dev_r	arm_flex_l	arm_add_l	arm_rot_l	elbow_flex_l	pro_sup_l	wrist_flex_l	wrist_dev_l
22.59	0.269003	1.30436	1.07784	0.758358	-0.730881	0.95328	0.143801	0.0573619	-0.156032	0.297059	0.189088	0	0	0.305064	-0.112144	-0.308318	0.216157	0.134437	0	0	-0.162913	0.114758	0.124764	1.24972	-0.207597	0.554295	0.791168	1.5708	0	0	1.20843	-0.220468	0.398275	0.737234	0.751551	0	0
22.6	0.26472	1.3045	1.08263	0.757385	-0.729619	0.953045	0.152307	0.053403	-0.156897	0.315239	0.192482	0	0	0.301902	-0.108466	-0.307779	0.211319	0.135215	0	0	-0.161775	0.113912	0.123904	1.24883	-0.210793	0.555094	0.794038	1.5708	0	0	1.20801	-0.218165	0.397706	0.736901	0.755065	0	0
22.61	0.258909	1.30492	1.08918	0.756281	-0.728388	0.952797	0.162858	0.0486198	-0.157452	0.337119	0.19526	0	0	0.297996	-0.103844	-0.307149	0.204797	0.135328	0	0	-0.160758	0.112775	0.122604	1.24764	-0.213399	0.555464	0.797189	1.5708	0	0	1.20728	-0.217027	0.397816	0.73738	0.758056	0	0
22.62	0.253235	1.30519	1.09561	0.755112	-0.727217	0.952509	0.175861	0.0439267	-0.156391	0.363129	0.197376	0	0	0.294358	-0.0993242	-0.306848	0.198485	0.135828	0	0	-0.159776	0.111881	0.121049	1.24636	-0.215286	0.555977	0.800407	1.5708	0	0	1.20649	-0.216761	0.398189	0.738095	0.760631	0	0
22.63	0.284847	1.30701	1.06737	0.752921	-0.725511	0.953451	0.182993	0.0422675	-0.171403	0.383328	0.188469	0	0	0.283857	-0.101338	-0.304577	0.190329	0.135644	0	0	-0.166445	0.122733	0.119111	1.24703	-0.218347	0.560696	0.8042	1.5708	0	0	1.20225	-0.21519	0.391829	0.74035	0.763881	0	0
22.64	0.237443	1.30356	1.11189	0.752662	-0.725309	0.951695	0.213874	0.035105	-0.145356	0.432259	0.200045	0	0	0.290644	-0.0905579	-0.30837	0.187267	0.138134	0	0	-0.155919	0.109934	0.117825	1.24348	-0.218533	0.560176	0.808225	1.5708	0	0	1.2049	-0.217952	0.397273	0.739682	0.767072	0	0
22.65	0.225548	1.30149	1.12215	0.751531	-0.724727	0.951197	0.23986	0.0321291	-0.129903	0.475118	0.197927	0	0	0.290849	-0.0863285	-0.310872	0.182182	0.138814	0	0	-0.152976	0.108061	0.117444	1.24182	-0.21924	0.561817	0.812514	1.5708	0	0	1.2044	-0.21991	0.398104	0.741024	0.769956	0	0
22.66	0.212835	1.29976	1.13249	0.75048	-0.724352	0.950733	0.269072	0.0308601	-0.107209	0.522997	0.192288	0	0	0.291571	-0.0821896	-0.31369	0.178441	0.139418	0	0	-0.150738	0.105527	0.117085	1.24067	-0.218645	0.562923	0.816212	1.5708	0	0	1.20377	-0.222886	0.397468	0.743502	0.772305	0	0
22.67	0.200443	1.29917	1.14273	0.749502	-0.724043	0.950315	0.299715	0.0309539	-0.0811531	0.574736	0.183633	0	0	0.292392	-0.0781219	-0.316367	0.177143	0.140569	0	0	-0.149769	0.102207	0.116148	1.2399	-0.217066	0.563071	0.819091	1.5708	0	0	1.2034	-0.226866	0.397554	0.746932	0.773479	0	0
22.68	0.179975	1.29764	1.15959	0.74881	-0.723941	0.949673	0.335518	0.031506	-0.0520076	0.631758	0.173023	0	0	0.29629	-0.0735376	-0.320526	0.178586	0.141954	0	0	-0.146914	0.0963992	0.115982	1.23884	-0.214638	0.561872	0.82179	1.5708	0	0	1.2029	-0.232039	0.398934	0.752307	0.774085	0	0
22.69	0.159202	1.29719	1.17772	0.748321	-0.723737	0.949062	0.370471	0.0321273	-0.0265282	0.688268	0.160912	0	0	0.299525	-0.0687842	-0.324507	0.181111	0.143663	0	0	-0.144731	0.089562	0.114148	1.23766	-0.210836	0.559345	0.823668	1.5708	0	0	1.20189	-0.238391	0.400586	0.758971	0.774562	0	0
22.7	0.144496	1.29825	1.19199	0.747944	-0.723308	0.948564	0.401311	0.0333268	-0.0075144	0.740144	0.14933	0	0	0.301372	-0.0650826	-0.326792	0.185413	0.146254	0	0	-0.144221	0.0835981	0.110375	1.23681	-0.206267	0.556567	0.824206	1.5708	0	0	1.20067	-0.244542	0.401418	0.765485	0.77512	0	0
22.71	0.136955	1.30006	1.20091	0.747599	-0.722663	0.948203	0.427806	0.0353119	0.00584458	0.784682	0.13979	0	0	0.30232	-0.0628713	-0.327313	0.191025	0.149289	0	0	-0.14483	0.0794114	0.105714	1.23613	-0.201791	0.553911	0.823628	1.5708	0	0	1.19881	-0.249927	0.401907	0.772882	0.775805	0	0
22.72	0.135317	1.30218	1.20457	0.747311	-0.722013	0.947925	0.45079	0.0383795	0.0161393	0.820762	0.13314	0	0	0.303065	-0.0622932	-0.327403	0.198035	0.153304	0	0	-0.145524	0.0743058	0.103653	1.23176	-0.202608	0.545586	0.82749	1.5708	0	0	1.21033	-0.276419	0.672175	0.72771	1.5708	0	0
22.73	0.149707	1.30432	1.1944	0.74671	-0.720744	0.948066	0.466611	0.04348	0.0202733	0.842529	0.129139	0	0	0.301212	-0.0646305	-0.324843	0.203381	0.156764	0	0	-0.14811	0.0798701	0.0950406	1.23321	-0.195843	0.548983	0.823866	1.5708	0	0	1.18948	-0.258612	0.402101	0.794251	0.833745	0	0
22.74	0.169709	1.30867	1.17931	0.746144	-0.719866	0.948456	0.477016	0.0484374	0.0221621	0.854214	0.131351	0	0	0.29741	-0.0674581	-0.32119	0.209038	0.159895	0	0	-0.154024	0.0805105	0.093135	1.22988	-0.200464	0.542784	0.829147	1.5708	0	0	1.20307	-0.284602	0.671508	0.742582	1.5708	0	0
22.75	0.194132	1.30998	1.15933	0.745377	-0.718443	0.948908	0.485346	0.0543828	0.0217883	0.853744	0.138444	0	0	0.294449	-0.0717399	-0.317567	0.21245	0.162047	0	0	-0.158144	0.0896739	0.0852823	1.23225	-0.195023	0.547211	0.825954	1.5708	0	0	1.17879	-0.26015	0.383035	0.813965	0.846244	0	0
22.76	0.218686	1.31232	1.13841	0.74469	-0.717048	0.949383	0.490185	0.0594463	0.0206334	0.844643	0.149627	0	0	0.289759	-0.0755184	-0.314474	0.21476	0.164016	0	0	-0.162613	0.0957488	0.0824127	1.23058	-0.196224	0.545904	0.828314	1.5708	0	0	1.17146	-0.25954	0.370667	0.825699	0.833676	0	0
22.77	0.206658	1.30542	1.16105	0.742879	-0.716973	0.949197	0.509946	0.0544656	0.0138195	0.831907	0.160499	0	0	0.296966	-0.0763442	-0.343862	0.202796	0.15681	0	0	-0.155261	0.0978377	0.0711927	1.22882	-0.197843	0.543148	0.832105	1.5708	0	0	1.1646	-0.258381	0.358655	0.837978	0.828531	0	0
22.78	0.256625	1.31569	1.10358	0.743562	-0.71439	0.950107	0.497907	0.0682474	0.0213928	0.805648	0.171842	0	0	0.280887	-0.0811717	-0.312193	0.216795	0.167475	0	0	-0.168359	0.102922	0.0848337	1.22182	-0.206784	0.537994	0.841497	1.5708	0	0	1.17078	-0.281238	0.61236	0.784958	1.5708	0	0
22.79	0.267291	1.31498	1.0927	0.743073	-0.713035	0.950343	0.503356	0.0725795	0.0245792	0.778084	0.180806	0	0	0.278402	-0.0830286	-0.311931	0.215819	0.168389	0	0	-0.168561	0.10698	0.0854666	1.21812	-0.209693	0.536114	0.84706	1.5708	0	0	1.16	-0.279048	0.593351	0.797202	1.5708	0	0
22.8	0.27502	1.3113	1.08348	0.742617	-0.711478	0.950486	0.510273	0.0782778	0.0298673	0.745601	0.187396	0	0	0.27805	-0.0856125	-0.311893	0.213662	0.168513	0	0	-0.166207	0.114508	0.0828301	1.21653	-0.206702	0.538643	0.849931	1.5708	0	0	1.12885	-0.252966	0.316066	0.886461	0.877194	0	0
22.81	0.280731	1.30969	1.07534	0.742555	-0.710404	0.950662	0.515924	0.0840131	0.0383255	0.713032	0.194036	0	0	0.276701	-0.0876993	-0.312684	0.212317	0.168607	0	0	-0.165008	0.114735	0.0896185	1.20863	-0.215615	0.531647	0.861248	1.5708	0	0	1.13595	-0.27494	0.554794	0.824882	1.5708	0	0
22.82	0.296222	1.30916	1.05992	0.742269	-0.708432	0.951115	0.516266	0.0895885	0.0432193	0.676453	0.199858	0	0	0.271621	-0.0905036	-0.312091	0.209352	0.169027	0	0	-0.16539	0.120026	0.0904867	1.20288	-0.21886	0.530534	0.867747	1.5708	0	0	1.1248	-0.27238	0.54156	0.835121	1.5708	0	0
